<svg id="Layer_1" data-name="Layer 1" xmlns="http://www.w3.org/2000/svg" viewBox="0 0 501.55 421.09"><defs><style>.cls-1{fill:#0c2551;}.cls-2{fill:#fff;}.cls-3{fill:#cdd6e0;}.cls-4{fill:#f2f2f2;}.cls-5{fill:#acb3ba;}.cls-6{fill:#fe8f1e;}.cls-7{fill:#07e496;}.cls-8{fill:#2a394f;}</style></defs><title>icono analisis</title><path class="cls-1" d="M485.88,85.68H26.12a21,21,0,0,0-20.9,20.9V414.82a21,21,0,0,0,20.9,20.9H485.88a21,21,0,0,0,20.9-20.9V106.58A21,21,0,0,0,485.88,85.68Z" transform="translate(-5.22 -85.68)"/><rect class="cls-2" x="31.35" y="31.35" width="438.86" height="257.04"/><rect class="cls-3" x="154.64" y="351.09" width="191.22" height="56.42"/><rect class="cls-4" x="97.18" y="407.51" width="307.2" height="13.58"/><rect class="cls-5" x="154.64" y="351.09" width="191.22" height="15.67"/><circle class="cls-4" cx="250.78" cy="319.74" r="12.54"/><path class="cls-6" d="M376.69,247.64v-6.27a81.61,81.61,0,0,0-81.5-81.5c-26.12,0-49.11,12.54-64.78,31.35a91.45,91.45,0,0,0-16.72-2.09,67.29,67.29,0,0,0-65.83,53.29c-19.85,4.18-34.48,21.94-34.48,43.89a44.6,44.6,0,0,0,44.93,44.93H353.7a44.6,44.6,0,0,0,44.93-44.93A49.26,49.26,0,0,0,376.69,247.64Z" transform="translate(-5.22 -85.68)"/><path class="cls-7" d="M224.08,301.31a4,4,0,0,1-2.83-1.17l-31.76-31.76a4,4,0,0,1-.27-5.87l32-32a4,4,0,0,1,5.65,5.65l-29.15,29.15,29.18,29.18a4,4,0,0,1-2.83,6.82" transform="translate(-5.22 -85.68)"/><path class="cls-7" d="M287.95,301.33a4,4,0,0,1-2.83-6.82l29.15-29.15-29.18-29.18a4,4,0,0,1,5.65-5.65l31.76,31.76a4,4,0,0,1,.27,5.87l-32,32a4,4,0,0,1-2.83,1.17" transform="translate(-5.22 -85.68)"/><path class="cls-7" d="M248,301.31a3.9,3.9,0,0,1-1-.12,4,4,0,0,1-2.91-4.85l16-64a4,4,0,0,1,7.75,1.94l-16,64a4,4,0,0,1-3.87,3" transform="translate(-5.22 -85.68)"/><path class="cls-8" d="M483.79,310.33H374.07c-6.27,0-10.45,4.18-10.45,10.45V496.33c0,6.27,4.18,10.45,10.45,10.45H483.79c6.27,0,10.45-4.18,10.45-10.45V320.78A10.47,10.47,0,0,0,483.79,310.33Z" transform="translate(-5.22 -85.68)"/><rect class="cls-2" x="374.39" y="253.4" width="99.27" height="133.75"/><polygon class="cls-4" points="374.07 386.61 473.34 252.87 473.34 386.61 374.07 386.61"/><path class="cls-7" d="M445.13,319.74H412.73a2.09,2.09,0,0,0,0,4.18h32.39a2.09,2.09,0,1,0,0-4.18Z" transform="translate(-5.22 -85.68)"/><circle class="cls-7" cx="423.18" cy="401.24" r="7.31"/></svg>