<svg id="Layer_1" data-name="Layer 1" xmlns="http://www.w3.org/2000/svg" viewBox="0 0 512 512"><defs><style>.cls-1{fill:#e8edee;}.cls-2{fill:#0c2551;}.cls-3{fill:#ed7161;}.cls-4{fill:#fe8f1e;}.cls-5{fill:#07e496;}.cls-6{fill:#2a394f;}</style></defs><title>icono desarrollo</title><path class="cls-1" d="M494.34,512H17.66A17.65,17.65,0,0,1,0,494.34V105.93H512V494.34A17.65,17.65,0,0,1,494.34,512" transform="translate(0 0)"/><path class="cls-2" d="M512,105.93H0V17.66A17.65,17.65,0,0,1,17.66,0H494.34A17.65,17.65,0,0,1,512,17.66Z" transform="translate(0 0)"/><path class="cls-3" d="M88.28,53A26.48,26.48,0,1,0,61.79,79.45,26.48,26.48,0,0,0,88.28,53" transform="translate(0 0)"/><path class="cls-4" d="M176.55,53a26.48,26.48,0,1,0-26.48,26.48A26.48,26.48,0,0,0,176.55,53" transform="translate(0 0)"/><path class="cls-5" d="M264.83,53a26.48,26.48,0,1,0-26.48,26.48A26.48,26.48,0,0,0,264.83,53" transform="translate(0 0)"/><path class="cls-6" d="M393.66,325V279.13l-22.94-8.6c-2.87-10-5.74-18.64-11.47-27.24l10-21.51-33-33-21.51,10c-8.6-4.3-17.21-8.6-27.24-11.47l-8.6-22.94H233.06l-8.6,22.94c-10,2.87-18.64,5.74-27.24,11.47l-21.51-10-33,33,10,21.51c-4.3,8.6-8.6,17.21-11.47,27.24l-22.94,8.6V325l22.94,8.6c2.87,10,5.74,18.64,11.47,27.24l-10,21.51,33,33,21.51-10c8.6,4.3,17.21,8.6,27.24,11.47l8.6,22.94h45.89l8.6-22.94c10-2.87,18.64-5.74,27.24-11.47l21.51,10,33-33-10-21.51c4.3-8.6,8.6-17.21,11.47-27.24Zm-81.73-22.94A56,56,0,0,1,256,358c-31.55,0-55.92-24.38-55.92-55.92A56,56,0,0,1,256,246.15C287.55,246.15,311.92,270.53,311.92,302.07Z" transform="translate(0 0)"/><path class="cls-5" d="M316.22,241.85a84.16,84.16,0,1,0,0,119C349.2,329.32,349.2,274.83,316.22,241.85ZM296.15,342.22c-21.51,21.51-57.36,21.51-78.86,0s-21.51-57.36,0-78.86,57.36-21.51,78.86,0S317.66,319.28,296.15,342.22Z" transform="translate(0 0)"/></svg>