<svg id="Layer_1" data-name="Layer 1" xmlns="http://www.w3.org/2000/svg" viewBox="0 0 486 463.64"><defs><style>.cls-1{fill:#07e496;}.cls-2{fill:#08af6e;}.cls-3{fill:#2a394f;}</style></defs><title>icono mentoring</title><path class="cls-1" d="M127.76,329.9a11.56,11.56,0,0,1,0,16.35L96.38,377.64h59.71l33.09-33.09a11.56,11.56,0,0,1,16.35,16.35l-16.74,16.74H452.85V114.49H80V267.25L96.58,250.7A11.56,11.56,0,0,1,112.93,267L80,300v61.32L111.4,329.9a11.56,11.56,0,0,1,16.35,0Zm20.69-179.77h236a11.56,11.56,0,1,1,0,23.13h-236a11.56,11.56,0,0,1,0-23.13Zm0,51.18h236a11.56,11.56,0,1,1,0,23.12h-236a11.56,11.56,0,0,1,0-23.12Zm0,51.54h236a11.56,11.56,0,1,1,0,23.12h-236a11.56,11.56,0,0,1,0-23.12Zm0,0" transform="translate(-13 -24.18)"/><path class="cls-2" d="M464.41,91.36h21.9V56.86H46.56v34.5Zm0,0" transform="translate(-13 -24.18)"/><path class="cls-3" d="M256,487.82a11.56,11.56,0,0,1-11.57-11.56V431.75L130.56,482.18A11.56,11.56,0,0,1,121.19,461l123.25-54.58V391.21H58a11.72,11.72,0,0,1-11.56-11.56V104.93H24.56A11.56,11.56,0,0,1,13,93.37V35.74A11.56,11.56,0,0,1,24.56,24.18H487.44A11.56,11.56,0,0,1,499,35.74V93.37a11.56,11.56,0,0,1-11.56,11.57h-21.9V379.65A11.56,11.56,0,0,1,454,391.21H267.56v15.25L390.81,461a11.56,11.56,0,0,1-9.37,21.15L267.56,431.75v44.51A11.56,11.56,0,0,1,256,487.82Zm0-119.74H442.41V104.93H69.59V257.7l16.56-16.56a11.56,11.56,0,1,1,16.35,16.35L69.59,290.41v61.33L101,320.35a11.56,11.56,0,0,1,16.36,16.35L85.94,368.09h59.72L178.75,335a11.56,11.56,0,0,1,16.35,16.35l-16.74,16.74H256ZM454,81.81h21.9V47.31H36.13v34.5ZM374,266.42H138a11.56,11.56,0,0,1,0-23.13H374a11.56,11.56,0,0,1,0,23.13Zm0-51.54H138a11.56,11.56,0,1,1,0-23.12H374a11.56,11.56,0,1,1,0,23.12Zm0-51.18H138a11.56,11.56,0,0,1,0-23.13H374a11.56,11.56,0,0,1,0,23.13Zm0,0" transform="translate(-13 -24.18)"/></svg>